<mxfile host="app.diagrams.net" modified="2024-07-04T17:28:33.940Z" agent="Mozilla/5.0 (Windows NT 10.0; Win64; x64) AppleWebKit/537.36 (KHTML, like Gecko) Chrome/126.0.0.0 Safari/537.36" version="24.6.4" etag="xlyMnT4O3j2oF3BU5t05" type="github">
  <diagram name="PÃ¡gina-1" id="Wo-p-iR0CkSsCPvWueW-">
    <mxGraphModel>
      <root>
        <mxCell id="0" />
        <mxCell id="1" parent="0" />
      </root>
    </mxGraphModel>
  </diagram>
</mxfile>
